PathFileType	4	(X/Y/Z)	Trial.trc
DataRate	CameraRate	NumFrames	NumMarkers	Units	OrigDataRate	OrigDataStartFrame	OrigNumFrames
9	9	10	2	mm	9	1	10
Frame#	Time	Marker1			Marker2		
		X1	Y1	Z1	X2	Y2	Z2
1	0	1.74369078611983	-1.95328935090244	0.0687294155616018	0.010291752013331	0.770978103757216	1.15652632105511
2	0.111111111111111	0.431159945235481	0.890211671069686	1.06988032192683	-0.185759519998527	-0.594607696688051	-1.22581225552279
3	0.222222222222222	-0.755133691206068	-0.0695191037185779	0.260492244303793	0.268788924099686	-1.69038107416171	0.54329697943508
4	0.333333333333333	-0.334405450774134	0.118221935129364	1.79002680617637	1.36600623565425	-0.984636336081399	-0.411906925369711
5	0.444444444444444	1.53968384677065	-1.07708851083615	0.284525251488231	-0.771983398812972	-0.26963314677018	0.888174115663889
6	0.555555555555556	-0.476136360243242	-0.809752119513357	-0.0221420408585904	-0.342101759384609	-0.348808253913442	-0.708571155603832
7	0.666666666666667	-1.0136255704243	-0.16030011990866	-0.450579379059696	-1.15886079503513	1.01979656740448	0.619157044653911
8	0.777777777777778	-0.968115013104758	-1.02030740630082	0.327935472010882	-0.862243620664124	-0.184327500648427	1.2467135488631
9	0.888888888888889	1.87059134161838	1.25047121228063	0.250838854469718	-1.49174466977001	0.318442844659745	-1.10686278879027
10	1	1.39977626872081	-0.884548498169174	0.471396109127318	-1.84644380007965	0.293241364809283	0.806743152663912
